<?xml version="1.0" standalone="no"?>
<!DOCTYPE svg PUBLIC "-//W3C//DTD SVG 20010904//EN"
 "http://www.w3.org/TR/2001/REC-SVG-20010904/DTD/svg10.dtd">
<svg version="1.0" xmlns="http://www.w3.org/2000/svg"
 width="807.000000pt" height="283.000000pt" viewBox="0 0 807.000000 283.000000"
 preserveAspectRatio="xMidYMid meet">

<g transform="translate(0.000000,283.000000) scale(0.100000,-0.100000)"
fill="#000000" stroke="none">
<path d="M1905 2786 c-207 -56 -361 -178 -410 -326 l-16 -49 -107 -3 -107 -3
3 -120 c8 -352 133 -672 342 -875 85 -83 157 -130 258 -168 59 -23 82 -26 197
-27 111 0 140 3 197 23 117 41 240 130 330 241 179 219 278 511 278 822 l0
109 -105 0 c-92 0 -106 2 -111 18 -30 102 -124 217 -227 278 -111 65 -195 87
-342 90 -85 2 -147 -2 -180 -10z m310 -81 c178 -42 337 -180 389 -337 5 -16
19 -18 100 -18 83 0 95 -2 101 -18 9 -30 -14 -249 -37 -346 -89 -380 -342
-660 -626 -694 -145 -17 -269 14 -397 99 -242 162 -397 489 -407 859 l-3 95
99 5 98 5 18 48 c51 134 199 256 369 303 62 17 223 16 296 -1z"/>
<path d="M1941 2654 c-163 -44 -303 -177 -355 -336 -5 -16 -19 -18 -107 -18
l-102 0 7 -82 c42 -504 332 -878 681 -878 141 0 264 52 378 160 182 171 284
410 312 727 l6 72 -102 3 -101 3 -16 40 c-41 105 -136 213 -232 264 -110 59
-254 76 -369 45z m315 -78 c97 -46 178 -126 228 -226 20 -40 36 -79 36 -86 0
-11 22 -14 96 -14 l96 0 -6 -67 c-4 -38 -9 -89 -12 -115 l-6 -48 -349 0 -349
0 0 299 c0 344 -13 310 113 300 59 -5 96 -16 153 -43z m-296 -261 l0 -295
-254 0 -254 0 -5 23 c-3 12 -9 64 -13 115 l-7 92 92 0 c91 0 92 0 102 28 47
127 149 246 258 300 35 18 68 32 73 32 4 0 8 -133 8 -295z m0 -620 c0 -343 10
-321 -114 -256 -101 54 -162 107 -235 206 -41 56 -103 179 -122 240 -6 22 -15
50 -20 63 -5 13 -9 27 -9 32 0 6 98 10 250 10 l250 0 0 -295z m720 291 c0 -2
-3 -11 -6 -20 -5 -14 -43 -16 -325 -16 l-319 0 0 -286 c0 -257 -2 -286 -16
-280 -9 3 -18 6 -20 6 -2 0 -4 135 -4 300 l0 300 345 0 c190 0 345 -2 345 -4z"/>
<path d="M3902 2243 l3 -238 33 -3 32 -3 0 160 c0 89 2 161 3 161 4 0 219
-218 290 -295 l47 -50 -3 245 -2 245 -27 3 -28 3 0 -155 c0 -85 -4 -157 -9
-160 -5 -3 -80 68 -166 159 -87 91 -162 165 -166 165 -5 0 -8 -103 -7 -237z"/>
<path d="M3450 2293 c0 -154 2 -183 19 -213 66 -126 255 -111 306 23 12 34 15
74 13 202 l-3 160 -30 0 -30 0 -5 -178 -5 -179 -28 -24 c-30 -26 -92 -33 -127
-14 -38 20 -45 50 -50 225 l-5 170 -27 3 -28 3 0 -178z"/>
<path d="M4430 2234 l0 -235 33 3 32 3 3 233 2 232 -35 0 -35 0 0 -236z"/>
<path d="M4564 2453 c39 -102 192 -473 196 -473 7 0 200 463 200 479 0 8 -12
11 -32 9 -33 -3 -34 -5 -97 -160 -35 -87 -67 -156 -71 -153 -4 3 -34 69 -65
147 -31 79 -61 149 -67 156 -6 6 -24 12 -40 12 -25 0 -29 -3 -24 -17z"/>
<path d="M5030 2235 l0 -235 125 0 125 0 0 30 0 30 -90 0 -90 0 0 80 0 79 88
3 87 3 0 30 0 30 -87 3 -88 3 0 54 0 55 90 0 90 0 0 35 0 35 -125 0 -125 0 0
-235z"/>
<path d="M5387 2464 c-4 -4 -7 -110 -7 -236 l0 -228 35 0 35 0 0 95 c0 52 4
95 8 95 5 0 37 -43 73 -95 62 -91 65 -94 102 -95 20 0 37 3 37 6 0 4 -30 47
-66 96 -36 50 -63 93 -60 96 3 3 15 10 27 16 40 20 64 64 64 115 0 57 -24 98
-68 116 -38 15 -169 30 -180 19z m146 -75 c30 -16 37 -28 37 -65 0 -40 -27
-64 -79 -71 l-41 -6 0 77 0 76 31 0 c17 0 40 -5 52 -11z"/>
<path d="M5812 2450 c-39 -24 -65 -79 -56 -118 10 -41 42 -70 116 -108 91 -46
109 -84 67 -138 -16 -20 -29 -26 -58 -26 -40 0 -63 18 -75 58 -8 23 -16 25
-52 14 -18 -6 -19 -11 -12 -39 28 -107 171 -135 247 -48 41 47 48 91 23 148
-17 39 -28 49 -88 78 -82 39 -104 56 -104 81 0 51 82 76 121 37 19 -19 24 -20
45 -8 27 14 28 18 11 39 -41 53 -125 66 -185 30z"/>
<path d="M6120 2234 l0 -235 33 3 32 3 3 233 2 232 -35 0 -35 0 0 -236z"/>
<path d="M6257 2464 c-4 -4 -7 -20 -7 -36 0 -27 1 -28 55 -28 l55 0 0 -200 0
-200 30 0 30 0 0 200 0 200 56 0 55 0 -3 33 -3 32 -131 3 c-71 1 -133 -1 -137
-4z"/>
<path d="M6580 2460 c0 -6 32 -65 70 -131 l70 -120 0 -104 0 -105 35 0 35 0 0
102 0 102 75 128 c77 132 79 144 24 136 -17 -2 -36 -26 -73 -90 -28 -48 -55
-86 -61 -85 -5 2 -28 35 -50 74 -22 38 -46 77 -54 86 -15 18 -71 23 -71 7z"/>
<path d="M7315 2451 c-148 -67 -191 -250 -87 -371 51 -60 104 -84 182 -84 208
1 312 223 183 392 -55 73 -189 104 -278 63z m171 -60 c126 -58 135 -227 15
-308 -47 -32 -135 -32 -181 0 -60 40 -75 70 -75 150 0 86 21 123 87 156 53 26
100 26 154 2z"/>
<path d="M7750 2235 l0 -235 30 0 30 0 0 110 0 110 80 0 80 0 0 35 0 35 -80 0
-80 0 0 55 0 54 83 3 82 3 0 30 0 30 -112 3 -113 3 0 -236z"/>
<path d="M2877 1984 c-3 -5 -8 -31 -12 -59 -6 -45 -6 -48 8 -30 22 30 29 63
19 81 -5 9 -12 13 -15 8z"/>
<path d="M1247 1943 c-12 -12 -7 -43 14 -84 11 -22 18 -46 15 -52 -3 -9 -5 -9
-5 1 -1 18 -61 16 -61 -2 0 -18 38 -46 62 -46 10 0 18 -7 18 -16 0 -12 -7 -14
-27 -10 -16 3 -35 1 -43 -4 -13 -9 -12 -13 9 -30 13 -11 36 -20 52 -20 48 0
37 -28 -13 -32 -23 -2 -43 -8 -45 -15 -5 -15 48 -43 80 -43 21 0 37 -16 37
-36 0 -2 -18 -4 -39 -4 -22 0 -43 -4 -46 -10 -8 -14 54 -50 87 -50 21 0 32 -8
44 -31 14 -28 14 -31 1 -26 -84 32 -137 28 -107 -8 23 -28 53 -39 103 -40 43
0 50 -3 68 -32 l20 -32 -53 5 c-62 6 -89 -6 -69 -30 22 -26 77 -39 113 -27 43
15 44 15 69 -20 l22 -31 -32 7 c-17 4 -50 4 -72 0 -51 -9 -49 -32 5 -59 37
-18 41 -18 89 -3 50 16 50 16 74 -9 13 -14 23 -27 23 -29 0 -3 -26 -2 -58 1
-58 6 -102 -5 -102 -27 0 -6 21 -19 46 -31 l46 -20 55 20 55 21 52 -34 c28
-18 86 -48 129 -66 42 -17 77 -35 77 -39 0 -8 -80 -25 -167 -36 -45 -6 -51 -9
-43 -23 25 -43 21 -43 156 -1 l129 41 70 -26 c39 -13 115 -38 170 -55 55 -17
107 -33 116 -35 10 -4 20 4 28 21 6 15 10 28 9 30 -2 1 -46 10 -98 18 -90 15
-227 49 -238 60 -3 3 4 8 14 12 116 40 279 111 320 138 l52 35 50 -21 c49 -21
52 -21 95 -4 90 34 53 73 -58 61 l-60 -6 31 31 30 31 39 -16 c45 -19 92 -14
127 15 34 28 12 43 -61 43 -53 0 -59 2 -51 17 18 34 33 39 78 27 38 -10 48 -9
79 8 20 11 38 25 40 32 5 15 -47 26 -91 17 -42 -7 -44 -3 -15 38 19 26 25 29
59 23 26 -4 48 -1 69 9 34 18 57 51 41 61 -11 7 -90 -13 -107 -27 -17 -14 -16
-3 2 32 11 22 23 30 43 30 33 0 95 36 87 50 -3 6 -24 10 -46 10 -33 0 -40 3
-37 17 2 12 16 20 41 24 44 7 84 38 65 51 -7 4 -28 8 -45 8 -23 0 -33 5 -33
15 0 10 10 15 29 15 31 0 81 33 69 46 -5 4 -26 7 -48 6 -31 -2 -38 1 -34 13 4
8 14 15 24 15 25 0 65 34 56 48 -10 16 -56 15 -57 0 0 -7 -4 -5 -8 6 -5 13
-13 -5 -29 -65 -68 -252 -212 -469 -413 -619 -111 -83 -347 -200 -403 -200
-27 0 -167 72 -261 135 -91 60 -222 191 -282 280 -86 128 -148 278 -188 454
-25 109 -28 115 -38 104z"/>
<path d="M3440 1513 c-23 -126 -45 -234 -48 -240 -3 -9 7 -13 31 -13 40 0 39
-2 68 175 6 39 15 76 18 83 4 7 34 -48 71 -133 74 -168 57 -171 142 19 27 61
53 115 58 119 4 5 15 -43 24 -105 25 -165 23 -158 62 -158 31 0 33 2 28 28 -3
15 -22 124 -43 242 l-39 215 -52 -110 c-29 -60 -65 -139 -82 -175 -34 -76 -24
-87 -115 118 -35 81 -68 150 -72 155 -4 4 -27 -95 -51 -220z"/>
<path d="M4831 1513 c-24 -126 -46 -234 -48 -240 -4 -9 6 -13 30 -13 40 0 39
-2 68 175 6 39 15 76 19 83 4 8 31 -43 70 -132 35 -80 65 -145 66 -143 2 2 31
64 65 138 33 74 64 138 68 142 4 4 16 -41 25 -100 28 -175 23 -163 62 -163 29
0 34 3 30 18 -2 9 -22 115 -42 235 -21 119 -41 217 -44 217 -4 0 -40 -71 -79
-157 -40 -87 -76 -162 -80 -166 -5 -4 -41 65 -80 155 -40 90 -76 166 -80 171
-4 4 -27 -95 -50 -220z"/>
<path d="M5457 1507 c-59 -127 -107 -235 -107 -239 0 -5 14 -8 30 -8 27 0 33
6 57 55 l27 55 102 0 102 0 22 -55 c21 -51 25 -55 56 -55 19 0 34 4 34 8 0 11
-200 455 -209 464 -4 5 -55 -97 -114 -225z m143 17 c42 -93 42 -94 -35 -94
-36 0 -65 4 -65 10 0 12 61 150 66 150 2 0 17 -30 34 -66z"/>
<path d="M6307 1703 c-8 -21 -58 -129 -111 -240 l-95 -203 35 0 c32 0 36 4 61
55 l27 55 102 0 102 0 23 -55 c21 -51 25 -55 56 -55 18 0 33 3 33 8 0 10 -200
455 -210 465 -4 5 -14 -9 -23 -30z m53 -179 c42 -93 42 -94 -35 -94 -36 0 -65
4 -65 10 0 12 61 150 67 150 2 0 17 -30 33 -66z"/>
<path d="M6611 1503 l-1 -243 35 0 35 0 0 163 0 162 170 -175 169 -175 0 243
1 242 -35 0 -35 0 0 -155 c0 -85 -3 -155 -7 -155 -4 0 -80 75 -170 168 l-162
167 0 -242z"/>
<path d="M7755 1612 c-32 -70 -82 -178 -111 -239 l-53 -113 34 0 c33 0 37 4
62 55 l27 55 102 0 102 0 22 -55 c21 -51 25 -55 56 -55 19 0 34 3 34 6 0 9
-201 458 -209 466 -4 5 -33 -49 -66 -120z m95 -88 c42 -93 42 -94 -35 -94 -51
0 -65 3 -65 15 0 13 61 145 67 145 2 0 16 -30 33 -66z"/>
<path d="M7274 1714 c-128 -45 -190 -202 -130 -329 73 -158 280 -184 382 -48
34 44 55 136 37 154 -6 6 -48 9 -94 7 l-84 -3 -3 -32 -3 -32 60 -3 61 -3 -17
-34 c-74 -144 -294 -76 -296 92 -2 104 72 179 175 179 40 0 59 -6 96 -32 34
-24 50 -30 61 -23 28 18 23 40 -13 68 -71 54 -152 67 -232 39z"/>
<path d="M4000 1490 l0 -230 35 0 35 0 0 95 0 95 48 0 c83 0 142 56 142 135 0
89 -63 134 -187 135 l-73 0 0 -230z m141 160 c45 -12 66 -52 50 -93 -12 -32
-39 -47 -85 -47 l-36 0 0 75 c0 83 1 84 71 65z"/>
<path d="M4342 1536 c3 -202 6 -211 72 -260 42 -32 149 -30 195 3 60 43 71 84
71 274 l0 167 -35 0 -35 0 0 -164 c0 -91 -4 -176 -10 -190 -20 -54 -109 -73
-155 -33 -35 30 -44 79 -45 250 l0 137 -31 0 -30 0 3 -184z"/>
<path d="M5850 1490 l0 -231 103 3 102 3 3 28 3 27 -70 0 -71 0 0 200 0 200
-35 0 -35 0 0 -230z"/>
<path d="M144 409 c-42 -12 -91 -69 -100 -115 -16 -84 59 -174 146 -174 61 0
110 18 110 42 0 16 -4 18 -17 12 -10 -4 -43 -10 -74 -12 -49 -3 -59 0 -87 23
-87 73 -23 207 92 192 23 -3 51 -9 64 -13 27 -8 31 20 5 35 -29 15 -105 21
-139 10z"/>
<path d="M1765 413 c-126 -35 -143 -216 -25 -275 107 -54 242 33 227 145 -10
72 -64 124 -137 131 -25 3 -54 2 -65 -1z m111 -52 c38 -23 58 -70 50 -115 -16
-84 -135 -118 -197 -57 -24 24 -29 38 -29 76 0 40 5 52 34 81 40 40 92 46 142
15z"/>
<path d="M1050 376 c0 -8 4 -17 9 -20 11 -7 33 18 24 27 -12 12 -33 7 -33 -7z"/>
<path d="M3440 375 c0 -8 9 -15 20 -15 11 0 20 7 20 15 0 8 -9 15 -20 15 -11
0 -20 -7 -20 -15z"/>
<path d="M3680 374 c0 -9 7 -14 17 -12 25 5 28 28 4 28 -12 0 -21 -6 -21 -16z"/>
<path d="M911 316 c-26 -27 -31 -36 -18 -36 14 0 17 -10 17 -60 0 -82 35 -117
94 -94 29 11 18 32 -16 30 l-33 -1 -3 63 -3 62 31 0 c20 0 30 5 30 15 0 10
-10 15 -29 15 -22 0 -30 5 -33 21 -3 18 -6 17 -37 -15z"/>
<path d="M2871 316 c-26 -27 -31 -36 -18 -36 14 0 17 -10 17 -49 0 -88 27
-121 86 -107 37 10 30 34 -8 32 l-33 -1 -3 63 -3 62 31 0 c20 0 30 5 30 15 0
10 -10 15 -29 15 -22 0 -30 5 -33 21 -3 18 -6 17 -37 -15z"/>
<path d="M3541 316 c-26 -27 -31 -36 -18 -36 14 0 17 -10 17 -49 0 -88 27
-121 86 -107 37 10 30 34 -8 32 l-33 -1 -3 63 -3 62 31 0 c20 0 30 5 30 15 0
10 -10 15 -29 15 -22 0 -30 5 -33 21 -3 18 -6 17 -37 -15z"/>
<path d="M416 299 c-21 -17 -26 -18 -26 -5 0 9 -9 16 -20 16 -20 0 -21 -5 -18
-92 3 -79 6 -93 21 -96 15 -3 17 5 17 60 0 80 15 104 58 95 37 -8 53 10 27 30
-24 17 -28 17 -59 -8z"/>
<path d="M570 313 c-40 -15 -60 -46 -60 -94 0 -40 4 -51 31 -73 17 -14 41 -26
54 -26 37 0 75 18 75 36 0 11 -5 14 -16 10 -49 -19 -63 -17 -89 8 -14 14 -23
31 -20 36 3 6 35 10 71 10 63 0 65 1 59 23 -11 35 -34 67 -49 67 -8 0 -20 2
-28 4 -7 3 -20 2 -28 -1z m54 -39 c27 -26 18 -34 -34 -34 -47 0 -50 1 -40 19
17 33 50 39 74 15z"/>
<path d="M738 308 c-18 -6 -28 -17 -28 -29 0 -16 3 -18 19 -9 32 17 68 12 74
-9 4 -16 -5 -25 -42 -43 -39 -19 -46 -27 -46 -52 0 -39 25 -54 64 -39 19 7 33
7 39 1 11 -11 52 -1 52 13 0 5 -7 9 -15 9 -12 0 -15 14 -15 63 0 68 -4 78 -37
96 -25 13 -29 13 -65 -1z m72 -123 c0 -29 -28 -47 -53 -34 -22 13 -22 35 1 48
31 19 52 13 52 -14z"/>
<path d="M1208 305 c-16 -7 -28 -10 -28 -4 0 5 -9 9 -20 9 -20 0 -21 -5 -18
-92 3 -79 6 -93 21 -96 15 -3 17 6 17 72 0 64 3 77 19 86 49 26 71 -2 71 -91
0 -55 3 -69 15 -69 12 0 15 15 15 78 0 47 -5 84 -12 94 -19 24 -50 29 -80 13z"/>
<path d="M2752 298 c-19 -19 -22 -20 -22 -5 0 10 -8 17 -20 17 -19 0 -20 -7
-20 -96 0 -86 2 -95 18 -92 14 3 18 16 20 68 4 75 15 93 54 88 41 -6 59 18 23
32 -14 5 -27 10 -28 10 -2 0 -13 -10 -25 -22z"/>
<path d="M3288 305 c-16 -7 -28 -10 -28 -4 0 5 -7 9 -15 9 -12 0 -15 -17 -15
-95 0 -77 3 -95 15 -95 11 0 15 17 17 72 3 68 5 73 31 88 26 14 29 14 43 -4 9
-13 14 -44 14 -88 0 -54 3 -68 15 -68 12 0 15 16 15 84 0 55 -4 87 -12 94 -25
19 -53 22 -80 7z"/>
<path d="M3830 313 c-40 -15 -60 -46 -60 -94 0 -40 4 -51 31 -73 17 -14 41
-26 54 -26 37 0 75 18 75 36 0 11 -5 14 -16 10 -44 -17 -61 -16 -87 5 -16 11
-26 26 -24 33 2 6 33 13 68 16 l65 5 -8 33 c-7 25 -18 37 -43 48 -19 8 -36 14
-37 13 -2 0 -10 -3 -18 -6z m54 -39 c27 -26 18 -34 -34 -34 -47 0 -50 1 -40
19 17 33 50 39 74 15z"/>
<path d="M4004 310 c-47 -19 -34 -71 26 -107 53 -31 17 -64 -42 -38 -25 10
-24 -21 1 -35 30 -15 66 -12 91 8 32 26 21 62 -30 96 -22 14 -40 30 -40 35 0
15 29 21 55 11 20 -8 25 -6 25 5 0 9 -12 20 -26 25 -29 12 -32 12 -60 0z"/>
<path d="M1050 214 c0 -86 2 -95 18 -92 14 3 17 17 20 96 3 87 2 92 -18 92
-19 0 -20 -6 -20 -96z"/>
<path d="M1370 290 c-26 -26 -26 -62 0 -85 19 -17 19 -19 2 -31 -13 -10 -14
-15 -5 -25 9 -9 5 -17 -14 -33 -29 -25 -26 -59 8 -77 30 -16 96 -13 124 5 47
31 25 77 -45 96 -41 11 -56 40 -21 40 10 0 31 10 46 22 23 18 26 27 22 55 -4
24 -2 33 9 33 8 0 14 5 14 10 0 6 -27 10 -60 10 -47 0 -64 -4 -80 -20z m81
-26 c17 -21 0 -49 -31 -49 -31 0 -48 28 -31 49 8 9 21 16 31 16 10 0 23 -7 31
-16z m17 -181 c3 -17 -3 -24 -22 -29 -38 -9 -76 3 -76 25 0 27 10 32 55 29 33
-2 41 -7 43 -25z"/>
<path d="M2020 164 c0 -112 3 -145 13 -142 6 3 13 25 15 51 3 45 4 47 33 47
69 0 118 56 104 119 -10 47 -48 71 -111 71 l-54 0 0 -146z m112 99 c24 -21 23
-75 -1 -97 -11 -10 -31 -16 -48 -14 -27 3 -28 5 -31 66 l-3 62 32 0 c18 0 41
-7 51 -17z"/>
<path d="M2232 168 c3 -119 5 -143 18 -143 11 0 16 14 18 50 l3 51 33 -4 c24
-3 40 3 64 23 27 23 32 34 32 71 0 66 -33 94 -112 94 l-59 0 3 -142z m118 92
c41 -41 9 -115 -48 -108 -26 3 -27 6 -30 66 l-3 62 31 0 c17 0 39 -9 50 -20z"/>
<path d="M2469 281 c-32 -33 -37 -67 -15 -110 25 -48 83 -63 136 -36 89 46 52
175 -50 175 -33 0 -48 -6 -71 -29z m107 -9 c23 -15 34 -50 24 -76 -21 -55 -99
-57 -119 -4 -9 25 3 68 22 80 15 10 59 10 73 0z"/>
<path d="M3010 235 c0 -62 4 -79 20 -95 23 -23 42 -25 72 -9 14 8 23 8 31 0
29 -29 37 -12 37 84 0 88 -1 95 -20 95 -18 0 -20 -7 -20 -69 0 -75 -12 -95
-52 -89 -26 4 -36 30 -37 106 -1 39 -5 52 -16 52 -12 0 -15 -15 -15 -75z"/>
<path d="M3442 218 c3 -79 6 -93 21 -96 15 -3 17 6 17 92 0 90 -1 96 -20 96
-20 0 -21 -5 -18 -92z"/>
<path d="M3680 214 c0 -86 2 -95 18 -92 14 3 17 17 20 96 3 87 2 92 -18 92
-19 0 -20 -6 -20 -96z"/>
</g>
</svg>
